<svg width="718" height="170" viewBox="0 0 718 170" fill="none" xmlns="http://www.w3.org/2000/svg">
<path fill-rule="evenodd" clip-rule="evenodd" d="M200.05 32.5957C200.05 31.3467 199.835 30.2218 199.405 29.2293C198.975 28.2367 198.363 27.3765 197.568 26.6569C196.774 25.9372 195.798 25.3913 194.649 25.0108C193.499 24.6304 192.225 24.4401 190.811 24.4401H181.232V48.7416H185.5V40.9333H190.323C191.663 40.9333 192.928 40.7514 194.103 40.3957C195.286 40.04 196.311 39.5106 197.196 38.8158C198.073 38.121 198.768 37.2526 199.281 36.2104C199.794 35.1682 200.042 33.9688 200.042 32.5957H200.05ZM239.662 41.6943H235.956C235.832 42.2402 235.658 42.7779 235.435 43.2907C234.939 44.4487 234.252 45.4578 233.384 46.3263C232.515 47.1948 231.481 47.8813 230.274 48.3942C229.066 48.907 227.759 49.1551 226.353 49.1551C224.947 49.1551 223.673 48.907 222.482 48.4107C221.291 47.9144 220.257 47.2279 219.389 46.3594C218.52 45.4909 217.842 44.4818 217.354 43.3403C216.866 42.1989 216.626 40.9664 216.626 39.643C216.626 38.3196 216.874 37.0789 217.37 35.9126C217.867 34.7463 218.553 33.7289 219.422 32.8604C220.29 31.9919 221.316 31.3054 222.507 30.7926C223.698 30.2797 225.005 30.0316 226.411 30.0316C227.817 30.0316 229.124 30.2797 230.315 30.776C231.506 31.2723 232.54 31.9588 233.409 32.8273C234.277 33.6958 234.955 34.705 235.443 35.863C235.667 36.3923 235.832 36.9382 235.956 37.4924H239.67C239.794 36.9548 239.96 36.4254 240.183 35.9126C240.679 34.7463 241.366 33.7289 242.234 32.8604C243.103 31.9919 244.128 31.3054 245.328 30.7926C246.527 30.2797 247.826 30.0316 249.232 30.0316C250.638 30.0316 251.945 30.2797 253.136 30.776C254.327 31.2723 255.361 31.9588 256.229 32.8273C257.098 33.6958 257.776 34.705 258.264 35.863C258.752 37.021 258.992 38.2617 258.992 39.5768C258.992 40.892 258.744 42.1327 258.248 43.2907C257.751 44.4487 257.065 45.4578 256.196 46.3263C255.328 47.1948 254.294 47.8813 253.086 48.3942C251.887 48.907 250.572 49.1551 249.166 49.1551C247.759 49.1551 246.486 48.907 245.295 48.4107C244.104 47.9144 243.07 47.2279 242.201 46.3594C241.333 45.4909 240.654 44.4818 240.166 43.3403C239.943 42.8109 239.769 42.2568 239.645 41.6943H239.662ZM195.707 32.7033C195.707 34.0184 195.236 35.0854 194.301 35.8795C193.367 36.6818 192.085 37.0788 190.463 37.0788H185.5V28.3277H190.463C192.06 28.3277 193.334 28.6916 194.285 29.4195C195.236 30.1474 195.707 31.2392 195.707 32.7033ZM208.139 41.7605C208.139 40.5528 208.288 39.4941 208.594 38.5842C208.892 37.6661 209.322 36.9134 209.876 36.3096C210.431 35.7058 211.092 35.2591 211.853 34.9531C212.614 34.6553 213.466 34.4982 214.384 34.4982H214.624V30.0564C213.003 29.9902 211.663 30.3707 210.596 31.1979C209.529 32.0333 208.71 33.1417 208.131 34.5313V30.4038H203.929V48.7333H208.131V41.7522L208.139 41.7605ZM231.986 39.643C231.986 38.8324 231.845 38.0714 231.572 37.3518C231.291 36.6322 230.911 36.0036 230.406 35.4577C229.91 34.9117 229.314 34.4899 228.636 34.1756C227.958 33.8613 227.197 33.7041 226.361 33.7041C225.526 33.7041 224.773 33.8613 224.087 34.1756C223.408 34.4899 222.821 34.9117 222.333 35.4411C221.845 35.9705 221.473 36.5908 221.225 37.3022C220.968 38.0052 220.844 38.7662 220.844 39.5768C220.844 40.3874 220.985 41.1567 221.258 41.8846C221.531 42.6124 221.92 43.2411 222.424 43.7787C222.92 44.3081 223.516 44.7299 224.194 45.0442C224.881 45.3585 225.625 45.5157 226.436 45.5157C227.296 45.5157 228.065 45.3585 228.743 45.0442C229.43 44.7299 230.009 44.3081 230.497 43.7787C230.985 43.2493 231.357 42.629 231.605 41.9259C231.862 41.2228 231.986 40.4619 231.986 39.6513V39.643ZM254.798 39.643C254.798 38.8324 254.658 38.0714 254.385 37.3518C254.104 36.6322 253.723 36.0036 253.219 35.4577C252.722 34.9117 252.127 34.4899 251.449 34.1756C250.762 33.8613 250.009 33.7041 249.174 33.7041C248.338 33.7041 247.586 33.8613 246.899 34.1756C246.213 34.4899 245.634 34.9117 245.146 35.4411C244.658 35.9705 244.285 36.5908 244.037 37.3022C243.781 38.0052 243.657 38.7662 243.657 39.5768C243.657 40.3874 243.797 41.1567 244.07 41.8846C244.352 42.6124 244.732 43.2411 245.237 43.7787C245.733 44.3081 246.32 44.7299 247.007 45.0442C247.693 45.3585 248.438 45.5157 249.248 45.5157C250.109 45.5157 250.878 45.3585 251.556 45.0442C252.234 44.7299 252.822 44.3081 253.31 43.7787C253.798 43.2493 254.17 42.629 254.418 41.9259C254.674 41.2228 254.798 40.4619 254.798 39.6513V39.643ZM268.339 30.5444V29.5353C268.339 27.6825 269.149 26.7561 270.771 26.7561C271.234 26.7561 271.656 26.7975 272.036 26.8802C272.417 26.9629 272.814 27.0704 273.235 27.211V23.6709C272.772 23.5303 272.276 23.4145 271.738 23.3235C271.209 23.2325 270.572 23.1829 269.828 23.1829C268.024 23.1829 266.635 23.6709 265.659 24.6552C264.683 25.6395 264.203 27.1531 264.203 29.1879V30.5113H261.879V34.0184H264.203V48.7416H268.405V34.0184H273.194V30.5444H268.331H268.339ZM294.27 39.7422C294.27 38.4684 294.038 37.2691 293.575 36.1359C293.112 35.0027 292.467 34.0101 291.631 33.1665C290.796 32.3228 289.811 31.6528 288.662 31.1565C287.52 30.6602 286.271 30.4121 284.931 30.4121C283.591 30.4121 282.309 30.6602 281.168 31.1565C280.018 31.6528 279.034 32.331 278.198 33.1913C277.363 34.0515 276.718 35.0441 276.255 36.1938C275.791 37.3353 275.56 38.5512 275.56 39.825C275.56 41.0988 275.791 42.2981 276.255 43.4313C276.718 44.5645 277.363 45.5571 278.198 46.4007C279.034 47.2444 280.018 47.9144 281.151 48.4107C282.284 48.907 283.525 49.1551 284.865 49.1551C286.205 49.1551 287.454 48.907 288.612 48.4107C289.77 47.9144 290.763 47.2362 291.598 46.3759C292.433 45.5157 293.087 44.5149 293.558 43.3734C294.03 42.2237 294.27 41.016 294.27 39.7422ZM291.524 39.8084C291.524 40.7844 291.358 41.686 291.036 42.538C290.713 43.3817 290.258 44.1178 289.679 44.7382C289.1 45.3668 288.405 45.8548 287.595 46.2105C286.784 46.5662 285.891 46.7481 284.923 46.7481C283.955 46.7481 283.095 46.5662 282.284 46.194C281.474 45.8217 280.771 45.3255 280.183 44.7051C279.596 44.0765 279.133 43.3403 278.794 42.4801C278.455 41.6199 278.289 40.71 278.289 39.734C278.289 38.7579 278.455 37.8564 278.777 37.0127C279.1 36.169 279.547 35.4246 280.117 34.7877C280.688 34.1508 281.375 33.6545 282.185 33.2988C282.996 32.9431 283.889 32.7612 284.857 32.7612C285.825 32.7612 286.685 32.9431 287.495 33.3154C288.306 33.6876 289.009 34.1921 289.613 34.829C290.217 35.4659 290.68 36.2103 291.019 37.0706C291.358 37.9308 291.524 38.8407 291.524 39.8167V39.8084ZM302.74 30.8505V29.3947C302.74 26.8471 303.782 25.5733 305.866 25.5733C306.329 25.5733 306.76 25.6147 307.148 25.6974C307.545 25.7801 307.984 25.8876 308.463 26.0282V23.704C308.025 23.5385 307.578 23.4227 307.124 23.3566C306.669 23.2904 306.131 23.249 305.511 23.249C303.774 23.249 302.442 23.7619 301.499 24.7792C300.564 25.7966 300.093 27.2938 300.093 29.2541V30.8174H297.628V33.1416H300.093V48.725H302.764V33.1416H308.422V30.8505H302.731H302.74ZM330.788 32.5875C330.788 31.3385 330.573 30.2136 330.143 29.221C329.713 28.2284 329.101 27.3682 328.307 26.6486C327.513 25.929 326.537 25.3831 325.387 25.0026C324.237 24.6221 322.963 24.4318 321.549 24.4318H311.971V48.7333H316.239V40.9251H321.061C322.401 40.9251 323.666 40.7431 324.841 40.3874C326.024 40.0317 327.049 39.5024 327.934 38.8076C328.811 38.1128 329.506 37.2443 330.019 36.2021C330.532 35.1599 330.78 33.9605 330.78 32.5875H330.788ZM326.446 32.695C326.446 34.0102 325.974 35.0772 325.039 35.8712C324.105 36.6736 322.823 37.0706 321.201 37.0706H316.239V28.3194H321.201C322.798 28.3194 324.072 28.6834 325.023 29.4112C325.974 30.1391 326.446 31.231 326.446 32.695ZM339.117 48.7333V23.3896H334.916V48.7333H339.117ZM359.986 48.7333V37.8646C359.986 35.408 359.324 33.5056 358.009 32.1573C356.694 30.8008 354.668 30.1226 351.93 30.1226C350.424 30.1226 349.142 30.2632 348.075 30.5362C347.008 30.8174 345.966 31.1813 344.949 31.6445L346.098 35.011C346.934 34.6636 347.753 34.3824 348.563 34.1756C349.374 33.9688 350.3 33.8613 351.343 33.8613C352.798 33.8613 353.915 34.2004 354.692 34.8704C355.47 35.5404 355.859 36.5164 355.859 37.7902V38.2451C355.139 38.0135 354.395 37.8315 353.617 37.6909C352.84 37.5503 351.897 37.4841 350.788 37.4841C349.68 37.4841 348.737 37.6082 347.819 37.8481C346.909 38.088 346.115 38.4519 345.462 38.9399C344.8 39.4279 344.287 40.04 343.915 40.7762C343.543 41.5123 343.361 42.3808 343.361 43.3817V43.4478C343.361 44.3742 343.543 45.1931 343.898 45.8962C344.254 46.5993 344.734 47.1948 345.321 47.6663C345.908 48.1377 346.603 48.5017 347.389 48.7416C348.175 48.9814 349.01 49.1055 349.887 49.1055C351.276 49.1055 352.459 48.8491 353.427 48.3445C354.403 47.8317 355.197 47.2113 355.826 46.4669V48.725H359.994L359.986 48.7333ZM355.925 42.0996C355.925 42.6786 355.801 43.208 355.561 43.6794C355.321 44.1509 354.974 44.5562 354.535 44.8953C354.097 45.2345 353.584 45.4909 352.989 45.6729C352.401 45.8548 351.756 45.9541 351.061 45.9541C350.069 45.9541 349.225 45.7225 348.547 45.2593C347.869 44.7961 347.521 44.1261 347.521 43.2493V43.1832C347.521 42.2319 347.893 41.5041 348.63 40.9995C349.374 40.4867 350.4 40.2385 351.723 40.2385C352.534 40.2385 353.303 40.3047 354.031 40.4453C354.759 40.5859 355.387 40.7596 355.925 40.9664V42.1079V42.0996ZM381.376 30.4038H377L372.244 44.0103L367.033 30.4038H362.559L370.193 48.7333C369.846 49.5439 369.474 50.0981 369.085 50.3958C368.688 50.6936 368.191 50.8508 367.588 50.8508C367.149 50.8508 366.727 50.7846 366.322 50.6605C365.917 50.5365 365.52 50.3628 365.123 50.156L363.7 53.2826C364.345 53.63 365.015 53.9029 365.693 54.1014C366.372 54.3 367.158 54.3992 368.034 54.3992C368.779 54.3992 369.432 54.3082 370.011 54.118C370.59 53.936 371.12 53.6382 371.608 53.2329C372.096 52.8276 372.534 52.2983 372.923 51.6531C373.32 51.0079 373.7 50.2056 374.064 49.2544L381.351 30.4038H381.376Z" fill="white"/>
<path d="M181.441 138.73V71.7438H191.536L214.702 119.192L237.868 71.7438H247.962V138.73H237.496V95.7937L216.935 138.73H212.469L191.954 95.7937V138.73H181.441ZM273.219 140.126C269.59 140.126 266.52 139.443 264.008 138.079C261.496 136.683 259.589 134.838 258.286 132.543C257.015 130.248 256.379 127.721 256.379 124.961C256.379 122.542 256.782 120.371 257.589 118.448C258.395 116.494 259.635 114.82 261.31 113.424C262.985 111.998 265.156 110.835 267.823 109.935C269.838 109.284 272.195 108.695 274.893 108.168C277.622 107.64 280.569 107.16 283.732 106.725C286.926 106.26 290.26 105.764 293.733 105.237L289.733 107.516C289.764 104.043 288.988 101.484 287.407 99.8408C285.825 98.1971 283.158 97.3753 279.406 97.3753C277.142 97.3753 274.955 97.9025 272.847 98.9569C270.738 100.011 269.265 101.826 268.427 104.4L258.193 101.19C259.434 96.9411 261.791 93.5298 265.264 90.9558C268.769 88.3818 273.482 87.0948 279.406 87.0948C283.871 87.0948 287.794 87.8236 291.175 89.2811C294.586 90.7387 297.114 93.1266 298.757 96.4449C299.657 98.2126 300.199 100.027 300.385 101.888C300.571 103.717 300.665 105.718 300.665 107.888V138.73H290.849V127.845L292.477 129.612C290.213 133.241 287.562 135.908 284.523 137.614C281.515 139.288 277.747 140.126 273.219 140.126ZM275.452 131.194C277.995 131.194 280.165 130.744 281.964 129.845C283.763 128.946 285.189 127.845 286.244 126.542C287.329 125.24 288.058 124.015 288.43 122.867C289.019 121.441 289.345 119.813 289.407 117.983C289.5 116.122 289.547 114.618 289.547 113.471L292.989 114.494C289.609 115.021 286.709 115.486 284.29 115.89C281.871 116.293 279.793 116.68 278.057 117.052C276.32 117.394 274.785 117.781 273.451 118.215C272.149 118.681 271.048 119.223 270.149 119.844C269.249 120.464 268.551 121.177 268.055 121.983C267.59 122.79 267.357 123.736 267.357 124.821C267.357 126.062 267.668 127.162 268.288 128.124C268.908 129.054 269.807 129.798 270.986 130.357C272.195 130.915 273.684 131.194 275.452 131.194ZM310.914 138.73V88.4903H320.823V100.725L319.613 99.143C320.234 97.4683 321.055 95.9487 322.079 94.5842C323.133 93.1887 324.389 92.0412 325.847 91.1419C327.087 90.3045 328.452 89.6533 329.94 89.1881C331.46 88.6919 333.011 88.3973 334.592 88.3042C336.174 88.1802 337.709 88.2422 339.198 88.4903V98.9569C337.709 98.5227 335.988 98.3832 334.034 98.5383C332.111 98.6933 330.375 99.236 328.824 100.166C327.273 101.004 326.002 102.074 325.01 103.376C324.048 104.679 323.335 106.167 322.87 107.842C322.404 109.486 322.172 111.269 322.172 113.191V138.73H310.914ZM346.121 138.73L346.214 71.7438H357.564V112.68L375.939 88.4903H389.941L370.45 113.61L391.616 138.73H376.776L357.564 114.541V138.73H346.121ZM416.347 140.126C411.261 140.126 406.795 139.025 402.949 136.823C399.104 134.621 396.096 131.566 393.925 127.659C391.785 123.751 390.715 119.254 390.715 114.168C390.715 108.679 391.769 103.919 393.878 99.8873C395.987 95.8247 398.918 92.677 402.67 90.4441C406.423 88.2112 410.764 87.0948 415.695 87.0948C420.905 87.0948 425.325 88.3198 428.953 90.7697C432.612 93.1887 435.326 96.6155 437.094 101.05C438.861 105.485 439.528 110.711 439.094 116.727H427.976V112.633C427.945 107.175 426.984 103.19 425.092 100.678C423.2 98.1661 420.223 96.9101 416.16 96.9101C411.571 96.9101 408.159 98.3367 405.926 101.19C403.694 104.012 402.577 108.152 402.577 113.61C402.577 118.696 403.694 122.635 405.926 125.426C408.159 128.217 411.416 129.612 415.695 129.612C418.455 129.612 420.828 129.008 422.813 127.798C424.828 126.558 426.379 124.775 427.464 122.449L438.536 125.798C436.613 130.326 433.636 133.846 429.604 136.358C425.604 138.87 421.184 140.126 416.347 140.126ZM399.042 116.727V108.261H433.605V116.727H399.042ZM477.059 138.73C473.74 139.35 470.484 139.614 467.29 139.521C464.127 139.459 461.289 138.885 458.777 137.8C456.265 136.683 454.358 134.931 453.055 132.543C451.908 130.372 451.303 128.155 451.241 125.891C451.179 123.627 451.148 121.069 451.148 118.215V74.5349H462.312V117.564C462.312 119.58 462.328 121.348 462.359 122.867C462.421 124.387 462.747 125.627 463.336 126.589C464.452 128.449 466.235 129.488 468.685 129.705C471.135 129.923 473.926 129.798 477.059 129.333V138.73ZM442.03 97.2823V88.4903H477.059V97.2823H442.03ZM510.144 140.126C505.244 140.126 501.135 138.963 497.817 136.637C494.498 134.311 492.002 131.148 490.327 127.147C488.653 123.115 487.815 118.603 487.815 113.61C487.815 108.555 488.653 104.027 490.327 100.027C492.002 96.0263 494.452 92.8785 497.677 90.5836C500.933 88.2577 504.949 87.0948 509.725 87.0948C514.47 87.0948 518.579 88.2577 522.053 90.5836C525.557 92.8785 528.271 96.0263 530.193 100.027C532.116 103.996 533.077 108.524 533.077 113.61C533.077 118.634 532.132 123.146 530.24 127.147C528.348 131.148 525.681 134.311 522.239 136.637C518.796 138.963 514.765 140.126 510.144 140.126ZM485.908 161.059V88.4903H495.816V123.751H497.212V161.059H485.908ZM508.423 130.078C511.338 130.078 513.741 129.349 515.633 127.891C517.525 126.434 518.92 124.464 519.82 121.983C520.75 119.471 521.215 116.68 521.215 113.61C521.215 110.571 520.75 107.811 519.82 105.33C518.889 102.818 517.447 100.833 515.494 99.3756C513.54 97.887 511.059 97.1427 508.051 97.1427C505.197 97.1427 502.872 97.8405 501.073 99.236C499.274 100.601 497.941 102.523 497.072 105.004C496.235 107.454 495.816 110.323 495.816 113.61C495.816 116.866 496.235 119.735 497.072 122.216C497.941 124.697 499.29 126.635 501.119 128.031C502.98 129.395 505.415 130.078 508.423 130.078ZM542.401 138.73V70.3482H553.612V138.73H542.401ZM579.734 140.126C576.105 140.126 573.035 139.443 570.523 138.079C568.011 136.683 566.104 134.838 564.801 132.543C563.53 130.248 562.894 127.721 562.894 124.961C562.894 122.542 563.297 120.371 564.104 118.448C564.91 116.494 566.15 114.82 567.825 113.424C569.5 111.998 571.671 110.835 574.338 109.935C576.353 109.284 578.71 108.695 581.408 108.168C584.137 107.64 587.084 107.16 590.247 106.725C593.441 106.26 596.775 105.764 600.248 105.237L596.248 107.516C596.279 104.043 595.503 101.484 593.922 99.8408C592.34 98.1971 589.673 97.3753 585.921 97.3753C583.657 97.3753 581.47 97.9025 579.362 98.9569C577.253 100.011 575.78 101.826 574.942 104.4L564.708 101.19C565.949 96.9411 568.306 93.5298 571.779 90.9558C575.283 88.3818 579.997 87.0948 585.921 87.0948C590.386 87.0948 594.309 87.8236 597.69 89.2811C601.101 90.7387 603.629 93.1266 605.272 96.4449C606.172 98.2126 606.714 100.027 606.9 101.888C607.086 103.717 607.179 105.718 607.179 107.888V138.73H597.364V127.845L598.992 129.612C596.728 133.241 594.077 135.908 591.038 137.614C588.029 139.288 584.261 140.126 579.734 140.126ZM581.967 131.194C584.51 131.194 586.68 130.744 588.479 129.845C590.278 128.946 591.704 127.845 592.759 126.542C593.844 125.24 594.573 124.015 594.945 122.867C595.534 121.441 595.86 119.813 595.922 117.983C596.015 116.122 596.062 114.618 596.062 113.471L599.504 114.494C596.124 115.021 593.224 115.486 590.805 115.89C588.386 116.293 586.308 116.68 584.572 117.052C582.835 117.394 581.3 117.781 579.966 118.215C578.664 118.681 577.563 119.223 576.664 119.844C575.764 120.464 575.066 121.177 574.57 121.983C574.105 122.79 573.872 123.736 573.872 124.821C573.872 126.062 574.183 127.162 574.803 128.124C575.423 129.054 576.322 129.798 577.501 130.357C578.71 130.915 580.199 131.194 581.967 131.194ZM639.246 140.126C634.067 140.126 629.648 138.978 625.989 136.683C622.329 134.357 619.523 131.194 617.569 127.193C615.646 123.193 614.669 118.665 614.638 113.61C614.669 108.462 615.677 103.903 617.662 99.9338C619.678 95.9332 622.531 92.801 626.221 90.5371C629.912 88.2422 634.3 87.0948 639.386 87.0948C645.092 87.0948 649.915 88.5368 653.853 91.421C657.823 94.2741 660.412 98.1816 661.622 103.144L650.457 106.167C649.589 103.469 648.147 101.376 646.131 99.8873C644.115 98.3677 641.82 97.6079 639.246 97.6079C636.331 97.6079 633.928 98.3057 632.036 99.7012C630.144 101.066 628.749 102.957 627.85 105.376C626.95 107.795 626.5 110.54 626.5 113.61C626.5 118.386 627.57 122.247 629.71 125.193C631.85 128.139 635.029 129.612 639.246 129.612C642.224 129.612 644.565 128.93 646.271 127.566C648.007 126.201 649.31 124.232 650.178 121.658L661.622 124.216C660.071 129.333 657.358 133.272 653.481 136.032C649.605 138.761 644.86 140.126 639.246 140.126ZM690.56 140.126C685.474 140.126 681.009 139.025 677.163 136.823C673.318 134.621 670.309 131.566 668.139 127.659C665.999 123.751 664.929 119.254 664.929 114.168C664.929 108.679 665.983 103.919 668.092 99.8873C670.201 95.8247 673.132 92.677 676.884 90.4441C680.637 88.2112 684.978 87.0948 689.909 87.0948C695.119 87.0948 699.538 88.3198 703.167 90.7697C706.826 93.1887 709.54 96.6155 711.308 101.05C713.075 105.485 713.742 110.711 713.308 116.727H702.19V112.633C702.159 107.175 701.198 103.19 699.306 100.678C697.414 98.1661 694.437 96.9101 690.374 96.9101C685.785 96.9101 682.373 98.3367 680.14 101.19C677.907 104.012 676.791 108.152 676.791 113.61C676.791 118.696 677.907 122.635 680.14 125.426C682.373 128.217 685.629 129.612 689.909 129.612C692.669 129.612 695.042 129.008 697.026 127.798C699.042 126.558 700.593 124.775 701.678 122.449L712.75 125.798C710.827 130.326 707.85 133.846 703.818 136.358C699.818 138.87 695.398 140.126 690.56 140.126ZM673.256 116.727V108.261H707.819V116.727H673.256Z" fill="white"/>
<path fill-rule="evenodd" clip-rule="evenodd" d="M118.519 82.3092L93.3633 96.8466V114.164V125.901L118.519 111.364V82.3092ZM47.7315 46.8756L72.887 61.413L98.0425 46.8756L72.887 32.3382L47.7315 46.8756ZM27.2751 96.8266V111.364L34.0939 115.283L52.4306 125.881V96.8266L27.2751 82.3092V96.8466V96.8266ZM13.6376 119.223V134.98L6.81877 131.041L0 127.101V85.0287V42.9563L72.887 0.883789L145.774 42.9563V127.121L109.32 148.157L93.3433 157.376V141.619L132.136 119.223V58.6935L79.7057 88.968C79.7057 97.3665 79.7057 105.745 79.7057 114.144V165.254L72.887 169.194L66.0682 165.254L36.4335 148.157L27.2751 142.878V127.121L66.0682 149.517V88.988L13.6376 58.7134V119.243V119.223ZM72.887 77.1501L20.4563 46.8756L72.887 16.601L125.318 46.8756L72.887 77.1501Z" fill="white"/>
</svg>
